<svg id="Capa_1" enable-background="new 0 0 512 512" height="512" viewBox="0 0 512 512" width="512" xmlns="http://www.w3.org/2000/svg"><g><path d="m16 305h480v192h-480z" fill="#fff5f5"/><g><path d="m256 305h240v192h-240z" fill="#e7f1f9"/></g><path d="m295 305h30v192h-30z" fill="#2e2654"/><g><path d="m388 305h30v192h-30z" fill="#2e2654"/><path d="m418 420h-30c-8.284 0-15-6.716-15-15v-100c0-8.284 6.716-15 15-15h30c8.284 0 15 6.716 15 15v100c0 8.284-6.716 15-15 15z" fill="#453d81"/></g><g><path d="m202 305h30v192h-30z" fill="#453d81"/><path d="m232 420h-30c-8.284 0-15-6.716-15-15v-100c0-8.284 6.716-15 15-15h30c8.284 0 15 6.716 15 15v100c0 8.284-6.716 15-15 15z" fill="#5e54ac"/></g><g><path d="m94 305h30v192h-30z" fill="#453d81"/><path d="m124 420h-30c-8.284 0-15-6.716-15-15v-100c0-8.284 6.716-15 15-15h30c8.284 0 15 6.716 15 15v100c0 8.284-6.716 15-15 15z" fill="#5e54ac"/></g><path d="m496 512h-480c-8.284 0-15-6.716-15-15v-192c0-8.284 6.716-15 15-15h480c8.284 0 15 6.716 15 15v192c0 8.284-6.716 15-15 15zm-465-30h450v-162h-450z" fill="#8cbcff"/><path d="m436 200h-65c-16.542 0-30-13.458-30-30 0-93.738-76.262-170-170-170s-170 76.262-170 170v135h510v-30c0-41.355-33.645-75-75-75z" fill="#8cbcff"/><path d="m496 290h-240v30h225v162h-225v30h240c8.284 0 15-6.716 15-15v-192c0-8.284-6.716-15-15-15z" fill="#7c84e8"/><g><path d="m511 275c0-41.355-33.645-75-75-75h-65c-16.542 0-30-13.458-30-30 0-62.795-34.226-117.742-85-147.179v282.179h255z" fill="#7c84e8"/></g><path d="m171 70c-8.284 0-15 6.716-15 15v79.187c-6.129-2.686-12.891-4.187-20-4.187-27.57 0-50 22.43-50 50s22.43 50 50 50 50-22.43 50-50v-107.921c23.061 6.545 40 27.791 40 52.921 0 8.284 6.716 15 15 15s15-6.716 15-15c0-46.869-38.131-85-85-85z" fill="#fff5f5"/></g></svg>